#!OML:ASF C:\Vicon Data\Big\jianyuan-13\jianyuan\Session 1\Capture.male.ASF
:FULLY-SPECIFIED
:DEGREES
139
root -7.353681 16.609192 -9.785977 10.001678 2.613141 0.333533
lowerback -12.495819 2.766578 -2.565392 
upperback 2.192957 4.240705 -1.230613 
thorax 9.287950 1.952960 0.984867 
lowerneck -1.568025 -2.699739 3.924239 
upperneck 10.801072 -4.034651 -2.109236 
head 3.659003 -2.091794 -1.537327 
rclavicle 0.000000 0.000000 
rhumerus -28.690941 -4.746443 -89.391742 
rradius 51.623564 
rwrist 15.372373 
rhand -18.652360 -18.753274 
rfingers 0.000000 
rthumb 7.640703 -48.595243 
lclavicle 0.000000 0.000000 
lhumerus -51.108928 32.978285 59.791779 
lradius 26.123811 
lwrist -56.495785 
lhand -18.736469 0.459499 
lfingers 0.000000 
lthumb 7.559521 30.304436 
rfemur 5.266699 4.282235 22.081205 
rtibia 31.636398 
rfoot -13.750244 4.175175 
rtoes -29.902011 
lfemur -44.522485 -1.035411 -18.776786 
ltibia 29.522383 
lfoot -1.687178 5.833848 
ltoes -21.550155 
140
root -7.327357 16.608829 -9.716307 10.076997 2.767731 0.321419
lowerback -12.386727 2.784168 -2.523384 
upperback 2.249443 4.255761 -1.237704 
thorax 9.289685 1.962456 0.952356 
lowerneck -1.503012 -2.794204 3.900855 
upperneck 10.579465 -4.144695 -2.080166 
head 3.565571 -2.142057 -1.519425 
rclavicle 0.000000 0.000000 
rhumerus -28.806545 -4.902613 -89.283215 
rradius 51.555449 
rwrist 15.270708 
rhand -18.698072 -18.804745 
rfingers 0.000000 
rthumb 7.596578 -48.648325 
lclavicle 0.000000 0.000000 
lhumerus -50.977684 33.141788 59.788123 
lradius 26.052736 
lwrist -56.828293 
lhand -18.723479 0.509444 
lfingers 0.000000 
lthumb 7.572092 30.353901 
rfemur 5.017213 3.861357 21.919944 
rtibia 32.271369 
rfoot -13.028175 4.369305 
rtoes -29.362516 
lfemur -44.661665 -1.030451 -18.979492 
ltibia 29.948088 
lfoot -1.629861 5.779200 
ltoes -21.893981 
141
root -7.298156 16.610686 -9.646491 10.103038 2.945633 0.381664
lowerback -12.221528 2.788120 -2.545948 
upperback 2.310116 4.261870 -1.248809 
thorax 9.259429 1.965346 0.946758 
lowerneck -1.441610 -2.893408 3.835227 
upperneck 10.426698 -4.264159 -2.058047 
head 3.497639 -2.200366 -1.498422 
rclavicle 0.000000 0.000000 
rhumerus -28.921959 -5.115557 -89.153556 
rradius 51.433470 
rwrist 15.162013 
rhand -18.747343 -18.813129 
rfingers 0.000000 
rthumb 7.548995 -48.658400 
lclavicle 0.000000 0.000000 
lhumerus -50.846156 33.270387 59.850657 
lradius 26.014542 
lwrist -57.106861 
lhand -18.716615 0.546505 
lfingers 0.000000 
lthumb 7.578724 30.390715 
rfemur 4.794541 3.384553 21.664683 
rtibia 32.954363 
rfoot -12.257950 4.610679 
rtoes -28.711868 
lfemur -44.712130 -1.067174 -19.260045 
ltibia 30.359975 
lfoot -1.419310 5.583260 
ltoes -21.374789 
142
root -7.271114 16.614485 -9.576077 10.210056 3.063712 0.426789
lowerback -12.142791 2.812462 -2.568661 
upperback 2.329061 4.300963 -1.291792 
thorax 9.235358 1.985499 0.917438 
lowerneck -1.280291 -2.981391 3.898127 
upperneck 10.204622 -4.371010 -2.025463 
head 3.385407 -2.247782 -1.491601 
rclavicle 0.000000 0.000000 
rhumerus -29.068260 -5.342419 -89.070089 
rradius 51.287798 
rwrist 15.043463 
rhand -18.789817 -18.826776 
rfingers 0.000000 
rthumb 7.508011 -48.673540 
lclavicle 0.000000 0.000000 
lhumerus -50.719326 33.379632 59.829444 
lradius 25.929340 
lwrist -57.503578 
lhand -18.827630 0.660335 
lfingers 0.000000 
lthumb 7.471573 30.508336 
rfemur 4.441867 2.942704 21.408322 
rtibia 33.686204 
rfoot -11.421028 4.836132 
rtoes -28.574149 
lfemur -44.840781 -1.112450 -19.462604 
ltibia 30.763059 
lfoot -1.087693 5.325802 
ltoes -20.400990 
143
root -7.242986 16.619742 -9.504196 10.342237 3.133734 0.457680
lowerback -12.109804 2.854315 -2.554068 
upperback 2.362265 4.358245 -1.323655 
thorax 9.254756 2.014729 0.885654 
lowerneck -1.187401 -3.086465 3.846662 
upperneck 10.019584 -4.501524 -1.955195 
head 3.301413 -2.309332 -1.455584 
rclavicle 0.000000 0.000000 
rhumerus -29.177540 -5.447732 -88.972698 
rradius 51.175592 
rwrist 14.835582 
rhand -18.812046 -18.899605 
rfingers 0.000000 
rthumb 7.486586 -48.747152 
lclavicle 0.000000 0.000000 
lhumerus -50.516939 33.522050 59.887078 
lradius 25.818084 
lwrist -57.834282 
lhand -18.881414 0.764716 
lfingers 0.000000 
lthumb 7.419657 30.614592 
rfemur 4.016930 2.540100 21.152085 
rtibia 34.490053 
rfoot -10.573809 5.061112 
rtoes -28.828142 
lfemur -44.979821 -1.136207 -19.642040 
ltibia 31.159251 
lfoot -0.785062 4.946210 
ltoes -19.835942 
144
root -7.213377 16.625399 -9.429472 10.431766 3.156308 0.548402
lowerback -12.023342 2.914743 -2.619426 
upperback 2.395070 4.449964 -1.345595 
thorax 9.235040 2.056955 0.912456 
lowerneck -1.130592 -3.208708 3.825197 
upperneck 9.907227 -4.649819 -2.017661 
head 3.245897 -2.384272 -1.471635 
rclavicle 0.000000 0.000000 
rhumerus -29.310973 -5.529691 -88.808081 
rradius 51.044365 
rwrist 14.626030 
rhand -18.841568 -19.022686 
rfingers 0.000000 
rthumb 7.458099 -48.871239 
lclavicle 0.000000 0.000000 
lhumerus -50.347389 33.667032 59.973667 
lradius 25.760523 
lwrist -58.041386 
lhand -18.716134 0.693064 
lfingers 0.000000 
lthumb 7.579173 30.537302 
rfemur 3.591181 2.128368 20.797701 
rtibia 35.380735 
rfoot -9.692731 5.332356 
rtoes -28.912833 
lfemur -45.028512 -1.261163 -19.822396 
ltibia 31.559001 
lfoot -0.747173 4.571635 
ltoes -19.620834 
145
root -7.183799 16.632773 -9.352497 10.472702 3.103491 0.682652
lowerback -11.899940 2.986066 -2.739301 
upperback 2.475369 4.568749 -1.393951 
thorax 9.243237 2.109926 0.945834 
lowerneck -1.216388 -3.290972 3.755508 
upperneck 9.835421 -4.758712 -1.928796 
head 3.237007 -2.434390 -1.433751 
rclavicle 0.000000 0.000000 
rhumerus -29.352629 -5.605548 -88.684291 
rradius 50.848215 
rwrist 14.469521 
rhand -18.839231 -19.094296 
rfingers 0.000000 
rthumb 7.460330 -48.942736 
lclavicle 0.000000 0.000000 
lhumerus -50.031332 33.716180 60.235534 
lradius 25.802875 
lwrist -57.981239 
lhand -18.555601 0.705262 
lfingers 0.000000 
lthumb 7.734101 30.543830 
rfemur 3.151796 1.753104 20.369063 
rtibia 36.361956 
rfoot -8.800011 5.636030 
rtoes -28.999875 
lfemur -44.972730 -1.383384 -20.031367 
ltibia 31.957052 
lfoot -0.921766 4.310655 
ltoes -19.769768 
146
root -7.154236 16.639684 -9.276867 10.552964 3.095588 0.765661
lowerback -11.789394 3.057358 -2.794983 
upperback 2.502279 4.672975 -1.422733 
thorax 9.203795 2.159657 0.960222 
lowerneck -1.160944 -3.374614 3.699926 
upperneck 9.749177 -4.865050 -1.889888 
head 3.195364 -2.486613 -1.410148 
rclavicle 0.000000 0.000000 
rhumerus -29.451617 -5.797506 -88.532583 
rradius 50.593383 
rwrist 14.500154 
rhand -18.837991 -19.115858 
rfingers 0.000000 
rthumb 7.461537 -48.964258 
lclavicle 0.000000 0.000000 
lhumerus -49.771995 33.723286 60.481994 
lradius 25.803001 
lwrist -57.880823 
lhand -18.491231 0.932600 
lfingers 0.000000 
lthumb 7.796242 30.768897 
rfemur 2.610270 1.343916 20.002715 
rtibia 37.416749 
rfoot -7.902491 5.925616 
rtoes -29.147751 
lfemur -44.972946 -1.446040 -20.230063 
ltibia 32.359738 
lfoot -1.241168 4.210823 
ltoes -19.877272 
147
root -7.107934 16.650713 -9.157699 10.723243 3.149104 0.861295
lowerback -11.640953 3.079531 -2.876929 
upperback 2.495107 4.712248 -1.448662 
thorax 9.104514 2.178300 0.976146 
lowerneck -1.004516 -3.461056 3.757867 
upperneck 9.623123 -4.968198 -1.957881 
head 3.116493 -2.538199 -1.436977 
rclavicle 0.000000 0.000000 
rhumerus -29.575455 -6.047577 -88.339801 
rradius 50.050513 
rwrist 14.779517 
rhand -18.644828 -19.061420 
rfingers 0.000000 
rthumb 7.647976 -48.903122 
lclavicle 0.000000 0.000000 
lhumerus -49.589635 34.011799 60.533446 
lradius 25.673174 
lwrist -57.963872 
lhand -18.695792 0.718658 
lfingers 0.000000 
lthumb 7.598756 30.562104 
rfemur 1.561003 0.669419 19.498304 
rtibia 39.297350 
rfoot -6.450460 6.305010 
rtoes -29.874334 
lfemur -45.042207 -1.625851 -20.482623 
ltibia 32.998856 
lfoot -1.801795 4.160138 
ltoes -20.890555 
148
root -7.057706 16.663717 -9.033616 10.874547 3.117501 1.021526
lowerback -11.452064 3.149565 -2.992049 
upperback 2.496798 4.821306 -1.494424 
thorax 8.988423 2.230464 0.999894 
lowerneck -0.910475 -3.561513 3.660453 
upperneck 9.590796 -5.099720 -1.922176 
head 3.086553 -2.606084 -1.407904 
rclavicle 0.000000 0.000000 
rhumerus -29.676707 -6.291589 -88.100457 
rradius 49.416607 
rwrist 14.985709 
rhand -18.597258 -18.968961 
rfingers 0.000000 
rthumb 7.693906 -48.809010 
lclavicle 0.000000 0.000000 
lhumerus -49.276246 34.082051 60.889231 
lradius 25.734208 
lwrist -57.848693 
lhand -18.597362 0.773759 
lfingers 0.000000 
lthumb 7.693825 30.613760 
rfemur 0.329896 0.015120 18.881468 
rtibia 41.558154 
rfoot -5.038391 6.703836 
rtoes -31.312152 
lfemur -44.995287 -1.747033 -20.817243 
ltibia 33.588723 
lfoot -2.337780 3.866174 
ltoes -20.266849 
149
root -7.007974 16.678128 -8.911901 11.064218 3.171162 1.201624
lowerback -11.333706 3.144324 -3.130334 
upperback 2.492074 4.835442 -1.536934 
thorax 8.907032 2.234613 1.026522 
lowerneck -0.847902 -3.598840 3.621563 
upperneck 9.565698 -5.148906 -1.894585 
head 3.066245 -2.631228 -1.390781 
rclavicle 0.000000 0.000000 
rhumerus -29.694086 -6.666213 -87.906153 
rradius 48.646467 
rwrist 15.436198 
rhand -18.534552 -18.764350 
rfingers 0.000000 
rthumb 7.754399 -48.602150 
lclavicle 0.000000 0.000000 
lhumerus -49.011671 34.235466 61.197093 
lradius 25.802158 
lwrist -57.506122 
lhand -18.476660 0.737198 
lfingers 0.000000 
lthumb 7.810312 30.572966 
rfemur -1.077461 -0.781491 18.258196 
rtibia 44.021888 
rfoot -3.605048 7.027352 
rtoes -32.991540 
lfemur -44.946830 -2.028392 -21.122337 
ltibia 34.059150 
lfoot -2.837643 3.652688 
ltoes -19.630528 
